<?xml version="1.0" encoding="UTF-8" standalone="no"?>
<svg
   xmlns:dc="http://purl.org/dc/elements/1.1/"
   xmlns:cc="http://creativecommons.org/ns#"
   xmlns:rdf="http://www.w3.org/1999/02/22-rdf-syntax-ns#"
   xmlns:svg="http://www.w3.org/2000/svg"
   xmlns="http://www.w3.org/2000/svg"
   xmlns:xlink="http://www.w3.org/1999/xlink"
   width="601"
   height="600"
   viewBox="0 0 601 600"
   version="1.1">
  <defs>
    <linearGradient id="linearGradient3781">
      <stop offset="0" style="stop-color:#000000;stop-opacity:1;" />
      <stop offset="1" style="stop-color:#000000;stop-opacity:0;" />
    </linearGradient>
    <linearGradient
       gradientUnits="userSpaceOnUse"
       y2="644.62"
       x2="300.23511"
       y1="644.62"
       x1="-332.52051"
       id="linearGradient3787"
       xlink:href="#linearGradient3781" />
  </defs>
  <g transform="translate(0,-452.36218)">
    <path
       style="opacity:1;fill:#2a2a4d;fill-opacity:1;stroke:none"
       d="M 288.84375 174.28125 C 264.49189 174.42902 223.65447 176.72217 189.75 183.53125 C 248.14101 187.79202 303.78744 200.22778 361.375 214.15625 C 384.50873 220.22984 413.48582 224.36887 425.3125 243.40625 C 430.48465 258.19088 425.28767 273.99194 420.875 288.53125 C 389.33795 373.91962 351.95574 444.62846 280.65625 509.0625 C 284.0804 510.63266 287.34334 511.5241 290.375 511.625 C 324.27919 512.75342 392.07707 416.53712 409.96875 386.5625 C 427.86042 356.58788 480.70001 250.69679 464.6875 219.59375 C 448.67499 188.49071 334.65419 175.53467 300.75 174.40625 C 298.63099 174.33575 296.17487 174.29688 293.46875 174.28125 C 291.99864 174.27276 290.46721 174.2714 288.84375 174.28125 z M 136.09375 266.59375 C 146.59977 308.80621 168.61301 359.30607 178.6875 378.875 C 184.40842 389.98743 195.99161 409.9519 210.03125 431.09375 C 210.29852 388.78036 201.2904 351.90827 189.9375 327.5 C 176.90049 299.47096 157.70997 280.92696 136.09375 266.59375 z "
       transform="translate(0,452.36218)" />
    <path
       d="M 283.13373,452.37355 C 206.61836,452.76433 36.545003,465.0561 7.7091152,513.36599 -24.109799,566.67346 58.110585,760.86304 86.587558,816.17732 115.06453,871.49159 224.87627,1050.3357 285.17216,1052.3425 345.46805,1054.3493 466.02962,883.18888 497.84853,829.88142 525.96017,782.78489 602.60707,630.31075 600.44959,557.2744 598.44232,628.20666 526.87037,765.43051 500.15284,808.64929 469.05013,858.96162 351.20107,1020.5294 292.26236,1018.6354 233.32365,1016.7413 126.0042,847.95048 98.168213,795.74409 70.332213,743.53769 -10.069942,560.26766 21.032777,509.95533 49.21961,464.35977 215.48989,452.74238 290.28301,452.37355 c -2.28719,-0.0118 -4.65511,-0.0127 -7.14928,0 z"
       style="fill:#2a2a4d;fill-opacity:1;stroke:none" />
    <path
       d="m 500.46503,483.27141 c 33.18075,14.86572 58.45698,32.83225 67.85909,54.2633 16.81062,38.31789 -2.00941,122.0466 -29.98562,206.08378 37.66797,-75.60886 83.70916,-172.51214 52.64471,-210.69278 -14.91091,-18.32667 -46.77454,-37.34639 -90.51818,-49.6543 z"
       style="fill:#2a2a4d;fill-opacity:1;stroke:none" />
  </g>
</svg>
